<?xml version="1.0" standalone="no"?>
<!DOCTYPE svg PUBLIC "-//W3C//DTD SVG 20010904//EN"
 "http://www.w3.org/TR/2001/REC-SVG-20010904/DTD/svg10.dtd">
<svg version="1.0" xmlns="http://www.w3.org/2000/svg"
 width="2400.000000pt" height="2400.000000pt" viewBox="0 0 2400.000000 2400.000000"
 preserveAspectRatio="xMidYMid meet">
<metadata>
Created by potrace 1.14, written by Peter Selinger 2001-2017
</metadata>
<g transform="translate(0.000000,2400.000000) scale(0.100000,-0.100000)"
fill="#000000" stroke="none">
<path d="M11647 22854 c-1 -1 -67 -5 -147 -8 -213 -10 -406 -24 -570 -42 -19
-2 -64 -6 -100 -9 -36 -3 -76 -8 -90 -10 -25 -4 -77 -11 -160 -20 -25 -3 -74
-10 -110 -16 -36 -6 -83 -13 -105 -15 -105 -14 -601 -106 -697 -130 -10 -2
-28 -6 -40 -9 -13 -3 -52 -12 -87 -21 -36 -9 -72 -17 -80 -19 -154 -31 -664
-175 -866 -245 -49 -17 -97 -33 -105 -35 -39 -9 -363 -130 -530 -197 -155 -62
-273 -113 -418 -179 -35 -16 -66 -29 -68 -29 -20 0 -644 -319 -747 -381 -26
-16 -49 -29 -51 -29 -3 0 -50 -27 -106 -60 -56 -33 -103 -60 -105 -60 -2 0
-56 -34 -122 -75 -65 -41 -140 -88 -168 -105 -73 -44 -89 -54 -95 -60 -3 -3
-66 -45 -140 -95 -74 -49 -136 -93 -138 -97 -2 -5 -8 -8 -13 -8 -5 0 -17 -7
-26 -15 -10 -8 -56 -41 -103 -74 -47 -33 -96 -69 -110 -79 -14 -11 -65 -50
-115 -87 -384 -290 -847 -694 -1149 -1001 -240 -245 -488 -516 -621 -678 -22
-27 -56 -68 -75 -91 -44 -53 -50 -60 -133 -165 -37 -47 -71 -89 -75 -95 -4 -5
-52 -68 -105 -140 -53 -71 -100 -134 -105 -140 -16 -19 -169 -241 -232 -335
-162 -243 -370 -588 -478 -790 -19 -36 -48 -89 -64 -119 -31 -55 -204 -402
-251 -501 -203 -434 -431 -1030 -553 -1445 -14 -49 -35 -119 -45 -155 -26 -84
-136 -515 -144 -559 -3 -19 -8 -37 -10 -40 -2 -4 -6 -26 -10 -51 -4 -25 -9
-48 -11 -51 -3 -6 -44 -203 -60 -289 -24 -128 -35 -191 -40 -225 -6 -47 -12
-81 -18 -111 -2 -12 -7 -45 -11 -74 -4 -29 -8 -61 -10 -70 -2 -9 -6 -41 -10
-71 -3 -30 -8 -65 -10 -79 -10 -74 -15 -110 -20 -160 -4 -30 -8 -71 -11 -90
-2 -19 -6 -64 -9 -100 -3 -36 -7 -78 -10 -95 -2 -16 -7 -73 -10 -125 -4 -52
-8 -111 -10 -130 -25 -254 -25 -1279 -1 -1430 3 -14 7 -70 11 -125 3 -55 8
-118 10 -140 2 -22 7 -69 10 -105 7 -76 15 -143 20 -185 2 -16 6 -52 10 -80 6
-54 8 -68 30 -220 14 -102 41 -270 50 -315 3 -14 10 -52 16 -85 5 -33 12 -69
14 -80 5 -28 73 -347 89 -420 103 -459 300 -1077 501 -1576 132 -327 349 -791
498 -1065 140 -258 308 -543 423 -719 32 -49 61 -95 64 -100 3 -6 23 -37 45
-69 22 -31 45 -65 50 -74 74 -118 416 -583 527 -717 9 -11 74 -90 145 -175 70
-85 135 -162 143 -171 8 -8 44 -49 80 -89 188 -213 541 -576 700 -718 25 -23
70 -64 100 -93 139 -131 548 -473 705 -590 33 -24 65 -48 71 -54 6 -5 48 -37
93 -70 46 -33 104 -76 130 -95 26 -19 54 -39 63 -45 8 -5 116 -78 239 -160
202 -136 513 -329 644 -400 28 -15 97 -54 155 -86 109 -61 542 -280 665 -336
262 -119 622 -267 798 -329 39 -14 81 -29 92 -34 55 -25 486 -163 655 -209 41
-12 89 -26 106 -31 75 -25 515 -131 679 -165 215 -44 204 -42 246 -49 19 -3
43 -7 54 -9 11 -3 36 -7 55 -11 19 -3 44 -8 55 -10 11 -2 42 -7 68 -10 27 -4
56 -9 65 -11 10 -1 37 -6 62 -9 25 -3 54 -8 65 -10 11 -2 45 -7 75 -11 63 -8
89 -11 145 -19 22 -3 63 -8 90 -11 28 -3 65 -7 83 -9 18 -3 67 -8 110 -12 42
-4 91 -8 107 -10 106 -10 209 -17 435 -30 280 -15 1006 -9 1250 11 19 1 76 6
125 9 50 4 104 9 120 10 17 2 66 6 110 10 44 4 87 9 95 11 8 2 44 6 80 10 36
3 76 7 90 9 14 3 52 7 85 11 33 3 83 10 110 15 28 5 68 11 90 14 70 10 243 39
305 51 14 3 50 9 80 15 30 6 66 12 80 15 38 8 122 25 150 30 108 19 586 138
765 190 902 263 1698 605 2493 1074 90 53 171 101 181 106 65 38 434 281 531
350 36 25 76 53 90 63 72 49 312 229 435 326 169 134 141 111 330 271 366 310
796 732 1095 1075 46 52 86 97 90 100 4 3 39 46 80 95 40 50 76 92 79 95 10 8
217 271 302 385 148 197 346 482 449 645 148 234 320 525 320 541 0 5 4 9 8 9
4 0 13 12 19 27 7 16 37 73 67 128 30 55 104 199 165 320 93 187 144 297 261
560 39 88 161 398 204 520 26 72 51 139 56 150 54 118 288 928 334 1155 3 14
7 34 10 45 6 25 46 211 52 245 3 14 11 57 19 95 16 78 36 190 40 220 2 11 6
36 10 55 7 37 8 44 20 125 4 28 9 59 11 70 9 46 39 272 49 370 3 33 8 76 10
95 3 19 7 62 10 95 3 33 8 78 10 100 4 37 14 162 21 265 19 288 25 948 11
1215 -10 190 -16 283 -22 345 -2 30 -7 87 -10 125 -3 39 -7 86 -10 105 -3 19
-7 60 -10 90 -3 30 -9 89 -14 130 -6 41 -12 95 -16 120 -3 25 -7 56 -9 70 -3
14 -7 45 -10 70 -10 79 -56 351 -77 455 -11 55 -22 114 -25 130 -3 17 -10 50
-15 75 -15 66 -16 68 -34 155 -22 108 -125 505 -164 635 -18 58 -34 115 -37
126 -8 42 -157 481 -214 634 -200 534 -465 1102 -723 1550 -33 58 -68 119 -78
137 -10 17 -29 50 -43 72 -15 22 -26 44 -26 48 0 3 -6 14 -14 22 -8 9 -22 32
-33 51 -10 19 -37 64 -60 100 -68 106 -171 264 -185 283 -7 9 -47 67 -88 128
-148 219 -479 652 -642 841 -101 118 -273 313 -328 373 -72 79 -528 535 -605
605 -183 168 -410 363 -550 475 -28 21 -52 42 -55 45 -3 3 -23 19 -45 35 -22
16 -54 41 -71 55 -17 14 -44 34 -59 45 -16 11 -33 25 -39 30 -12 11 -164 124
-241 179 -233 166 -779 516 -805 516 -6 0 -10 5 -10 10 0 6 -5 10 -10 10 -6 0
-27 11 -48 24 -106 66 -357 201 -597 320 -208 102 -291 142 -495 234 -78 34
-416 172 -424 172 -4 0 -22 7 -39 15 -82 38 -535 193 -752 257 -228 67 -610
169 -695 185 -13 2 -60 12 -105 23 -67 15 -340 69 -425 84 -14 2 -36 7 -50 10
-14 3 -41 8 -60 10 -19 3 -75 12 -125 20 -49 8 -110 18 -135 21 -25 3 -56 8
-70 10 -14 2 -47 7 -75 10 -27 3 -84 10 -125 15 -41 5 -100 12 -130 15 -30 3
-73 8 -95 10 -88 9 -256 23 -365 30 -47 3 -123 8 -170 11 -81 5 -878 13 -883
8z"/>
</g>
</svg>
