<?xml version="1.0" standalone="no"?>
<!DOCTYPE svg PUBLIC "-//W3C//DTD SVG 20010904//EN"
 "http://www.w3.org/TR/2001/REC-SVG-20010904/DTD/svg10.dtd">
<svg version="1.0" xmlns="http://www.w3.org/2000/svg"
 width="225.000000pt" height="225.000000pt" viewBox="0 0 225.000000 225.000000"
 preserveAspectRatio="xMidYMid meet">
<metadata>
Created by potrace 1.14, written by Peter Selinger 2001-2017
</metadata>
<g transform="translate(0.000000,225.000000) scale(0.100000,-0.100000)"
fill="#000000" stroke="none">
<path d="M910 2181 c-216 -46 -388 -140 -545 -296 -159 -160 -251 -330 -297
-555 -26 -125 -21 -345 11 -463 106 -397 386 -678 788 -789 67 -19 104 -22
258 -22 154 0 191 3 258 22 402 111 682 392 788 789 32 118 37 338 11 463 -46
225 -138 395 -297 555 -159 158 -330 251 -550 296 -118 25 -308 24 -425 0z
m370 -26 c550 -83 943 -589 882 -1133 -28 -253 -125 -456 -301 -633 -308 -307
-744 -390 -1152 -220 -168 70 -353 226 -457 385 -224 344 -226 798 -3 1137
228 346 627 526 1031 464z"/>
<path d="M937 2125 c-334 -63 -633 -311 -755 -625 -148 -378 -59 -805 227
-1091 410 -409 1068 -395 1464 31 269 291 342 712 186 1086 -94 226 -308 439
-534 533 -131 55 -216 72 -370 77 -96 2 -164 -1 -218 -11z m333 -30 c146 -22
293 -79 410 -158 66 -45 196 -173 245 -242 282 -396 230 -940 -124 -1278 -188
-179 -413 -269 -676 -269 -238 1 -445 75 -627 226 -247 205 -377 522 -347 845
42 452 389 814 845 880 91 13 170 12 274 -4z"/>
<path d="M1108 1984 l-3 -46 -54 43 -54 43 6 -69 c4 -39 7 -80 7 -92 0 -16 4
-21 15 -17 10 4 15 20 15 51 l0 44 53 -40 52 -40 3 32 c6 55 -8 137 -23 137
-9 0 -15 -15 -17 -46z"/>
<path d="M1237 2013 c-13 -12 -7 -23 11 -23 29 0 30 -6 14 -76 -12 -56 -12
-68 -1 -75 23 -14 29 -10 29 17 0 14 5 46 11 70 10 40 15 45 35 41 18 -3 24 0
24 13 0 21 -107 50 -123 33z"/>
<path d="M779 1951 c-60 -61 -24 -151 61 -151 54 0 90 34 90 85 0 48 -45 95
-90 95 -22 0 -41 -9 -61 -29z m95 -22 c14 -11 26 -29 26 -40 0 -25 -35 -59
-60 -59 -24 0 -60 34 -60 55 0 17 43 65 58 65 5 0 21 -9 36 -21z"/>
<path d="M1437 1934 c-51 -28 -62 -96 -23 -141 34 -39 98 -39 132 0 66 77 -21
190 -109 141z m85 -41 c39 -35 7 -98 -48 -91 -18 2 -34 13 -43 29 -13 24 -13
29 2 53 20 30 61 35 89 9z"/>
<path d="M573 1839 c-18 -12 -33 -23 -33 -25 0 -2 23 -35 51 -73 33 -46 55
-68 65 -64 18 7 18 13 -6 43 -29 37 -25 41 22 24 41 -14 78 -11 78 7 0 5 -7 9
-15 9 -32 0 -63 22 -58 41 7 25 -23 59 -51 59 -12 0 -36 -10 -53 -21z m66 -23
c9 -11 8 -18 -5 -31 -17 -16 -18 -16 -31 1 -9 13 -10 21 -2 31 14 17 24 16 38
-1z"/>
<path d="M1018 1760 c-192 -33 -374 -162 -462 -329 -32 -61 -35 -71 -19 -71
12 0 28 20 47 56 39 74 160 203 169 180 4 -9 11 -16 17 -16 7 0 8 6 1 18 -7
13 -6 23 2 31 9 9 16 6 29 -11 14 -19 18 -20 18 -6 0 9 -5 20 -12 24 -7 5 -5
11 7 21 24 16 36 17 29 0 -2 -7 3 -21 11 -32 15 -19 15 -18 9 17 -5 30 -2 38
14 47 28 15 28 15 28 -24 0 -34 9 -53 20 -42 3 3 1 13 -4 23 -16 30 6 63 52
76 23 7 91 12 151 12 97 0 121 -4 204 -32 109 -38 143 -29 50 12 -103 47 -247
65 -361 46z"/>
<path d="M1654 1749 c-78 -88 -303 -160 -618 -199 -206 -26 -258 -44 -320
-110 -25 -27 -46 -54 -46 -60 0 -20 29 -68 45 -74 24 -9 25 -8 25 19 0 68 107
106 243 86 101 -14 132 -30 62 -32 l-50 -1 89 -29 c97 -32 206 -51 206 -36 0
5 24 6 59 2 l58 -7 12 33 11 33 43 -42 43 -42 -8 81 c-5 45 -7 83 -5 85 2 2
20 -2 40 -11 l35 -14 39 64 c21 36 40 65 43 65 3 0 18 -23 34 -51 31 -55 37
-54 51 11 4 19 14 48 22 63 19 38 10 44 -32 24 -19 -9 -35 -14 -35 -11 0 12
42 84 65 113 32 37 31 37 -35 11 -28 -11 -52 -20 -53 -20 -2 0 -1 16 1 35 5
41 2 43 -24 14z"/>
<path d="M406 1669 c-35 -41 -34 -83 3 -120 60 -60 150 -22 151 64 0 83 -100
120 -154 56z m104 -19 c34 -34 20 -80 -27 -95 -17 -4 -29 1 -48 19 -30 30 -31
36 -4 70 24 31 52 33 79 6z"/>
<path d="M971 1686 c-12 -14 -4 -76 10 -76 12 0 11 21 -1 40 -6 10 -4 20 7 32
9 10 11 18 6 18 -6 0 -16 -6 -22 -14z"/>
<path d="M1032 1678 c-12 -15 -4 -68 9 -68 11 0 11 11 -1 30 -6 10 -4 20 7 32
9 10 11 18 6 18 -6 0 -15 -6 -21 -12z"/>
<path d="M1092 1667 c-12 -15 -5 -57 10 -57 5 0 6 9 3 20 -4 12 -1 27 5 35 7
9 8 15 2 15 -5 0 -14 -6 -20 -13z"/>
<path d="M1152 1650 c-6 -11 -8 -21 -3 -25 5 -3 13 4 16 16 9 28 2 33 -13 9z"/>
<path d="M1210 1635 c-8 -9 -8 -15 -2 -15 12 0 26 19 19 26 -2 2 -10 -2 -17
-11z"/>
<path d="M720 1570 c0 -5 5 -10 11 -10 5 0 7 5 4 10 -3 6 -8 10 -11 10 -2 0
-4 -4 -4 -10z"/>
<path d="M290 1469 c-19 -50 -21 -62 -9 -69 9 -6 16 -2 24 15 l10 24 67 -28
c55 -24 68 -26 72 -14 3 8 6 16 6 18 0 1 -26 13 -57 25 -74 29 -81 36 -66 59
10 16 9 20 -3 25 -9 3 -17 6 -19 6 -1 0 -13 -27 -25 -61z"/>
<path d="M1622 1450 c-34 -53 -41 -57 -73 -39 -19 9 -20 8 -15 -23 14 -93 16
-137 5 -143 -6 -4 -30 11 -53 34 l-42 42 -11 -24 c-11 -23 -15 -24 -55 -16
-24 4 -45 8 -48 9 -3 0 -3 -23 -1 -52 2 -39 -1 -55 -13 -63 -13 -10 -4 -22 67
-83 116 -100 123 -108 106 -128 -13 -16 -8 -17 73 -11 63 4 88 3 92 -6 5 -9 7
-9 12 0 4 10 28 11 92 7 85 -7 87 -7 70 12 -17 19 -13 23 87 109 87 75 101 90
88 100 -11 8 -14 25 -12 63 4 50 3 51 -21 46 -14 -3 -35 -7 -48 -10 -17 -3
-25 2 -33 22 l-10 27 -43 -42 c-24 -24 -49 -41 -54 -37 -6 4 -8 37 -5 86 l6
80 -29 -6 c-27 -5 -31 -1 -57 45 -16 28 -31 51 -35 51 -4 0 -22 -23 -40 -50z"/>
<path d="M598 1348 c-29 -30 -44 -37 -104 -47 -138 -23 -284 -71 -284 -92 0
-5 102 -9 228 -9 184 1 231 3 246 15 33 25 77 18 130 -20 65 -46 107 -47 161
-2 l39 32 144 3 c122 3 143 6 140 19 -2 12 -26 15 -139 16 l-136 2 -48 38
c-27 21 -59 37 -74 37 -14 0 -52 -18 -85 -40 -45 -31 -64 -38 -85 -34 -36 9
-61 32 -82 79 l-18 39 -33 -36z m272 -63 c0 -16 -6 -25 -15 -25 -18 0 -18 5
-5 31 14 26 20 24 20 -6z"/>
<path d="M219 1177 c18 -22 138 -64 294 -102 151 -37 201 -63 284 -143 100
-97 242 -324 303 -485 16 -43 30 -83 30 -88 0 -25 20 1 78 99 85 146 179 270
283 376 l87 89 -79 -7 c-43 -3 -79 -3 -79 1 0 4 11 19 25 33 l25 26 -34 33
c-19 18 -39 30 -45 27 -14 -9 -91 -147 -91 -163 0 -6 16 -13 35 -15 l35 -3
-46 -55 c-25 -30 -64 -84 -86 -118 l-41 -64 -35 67 c-40 75 -160 209 -231 258
-25 17 -93 55 -151 83 -108 53 -135 74 -142 109 -3 17 -16 21 -98 31 -52 6
-149 15 -214 18 -104 6 -118 5 -107 -7z"/>
<path d="M494 988 c11 -67 62 -178 116 -250 74 -97 192 -181 310 -220 78 -26
100 -30 95 -15 -3 7 -38 23 -78 35 -39 12 -100 40 -135 62 -51 33 -61 43 -54
57 5 10 5 32 1 48 -7 30 -7 30 -8 -7 0 -20 -5 -39 -10 -42 -16 -10 -28 18 -25
56 2 21 -2 40 -8 44 -8 5 -9 -2 -5 -24 4 -17 3 -34 -2 -37 -16 -9 -33 24 -29
54 2 17 1 28 -4 25 -4 -3 -8 -12 -8 -21 0 -13 -3 -13 -15 -3 -9 8 -13 22 -10
39 3 14 2 20 -1 14 -10 -22 -24 -14 -24 14 0 14 -3 23 -7 19 -10 -10 -61 101
-69 150 -4 30 -11 44 -21 44 -13 0 -14 -8 -9 -42z"/>
<path d="M1681 875 c-19 -47 -26 -54 -38 -44 -12 11 -13 9 -8 -13 13 -52 -115
-175 -258 -248 -70 -36 -105 -70 -56 -55 152 46 304 178 379 331 33 68 36 84
17 84 -7 0 -24 -25 -36 -55z"/>
<path d="M358 845 l-106 -51 18 -41 c36 -81 99 -108 138 -58 11 14 29 25 40
25 23 0 62 44 62 69 0 9 -10 37 -23 62 l-22 46 -107 -52z m123 -25 c11 -35 10
-42 -7 -61 -12 -13 -27 -19 -41 -16 -14 2 -23 -1 -23 -8 0 -6 -9 -20 -20 -30
-30 -27 -66 -13 -91 36 -11 23 -19 43 -17 45 12 11 174 82 180 78 4 -3 13 -23
19 -44z"/>
<path d="M418 834 c-32 -17 -33 -22 -12 -52 21 -31 58 -26 62 8 2 14 -3 33
-10 42 -12 15 -16 15 -40 2z m32 -34 c0 -23 -25 -27 -33 -6 -7 16 1 26 20 26
7 0 13 -9 13 -20z"/>
<path d="M328 794 c-33 -17 -32 -16 -13 -54 17 -33 54 -40 75 -15 9 11 9 22 0
50 -13 39 -22 41 -62 19z m48 -50 c-7 -19 -33 -18 -45 4 -7 13 -5 20 12 29 18
9 24 9 30 -3 5 -9 6 -22 3 -30z"/>
<path d="M1595 800 c0 -34 1 -38 9 -21 5 13 5 29 0 42 -8 17 -9 13 -9 -21z"/>
<path d="M1745 815 c-33 -32 -34 -86 -3 -115 29 -27 60 -25 97 6 18 15 38 24
47 20 22 -9 13 -40 -14 -44 -27 -4 -30 -22 -3 -22 40 0 66 51 39 78 -18 18
-41 15 -78 -13 -39 -29 -53 -31 -74 -9 -31 31 -9 104 32 104 7 0 12 5 12 10 0
18 -31 10 -55 -15z"/>
<path d="M1537 823 c-4 -3 -2 -12 4 -19 6 -8 9 -21 5 -29 -3 -8 -1 -15 3 -15
5 0 12 7 15 16 7 17 -17 58 -27 47z"/>
<path d="M1770 792 c-18 -14 -22 -25 -16 -45 8 -35 34 -35 86 -1 38 25 41 26
65 10 38 -25 32 -73 -12 -101 -35 -22 -42 -35 -17 -35 8 0 29 13 45 29 39 39
40 91 3 120 -35 27 -51 26 -96 -4 -20 -14 -42 -25 -47 -25 -19 0 -12 29 9 42
21 13 27 28 11 28 -5 0 -19 -8 -31 -18z"/>
<path d="M1501 783 c0 -6 -4 -20 -7 -30 -5 -14 -4 -15 5 -7 7 7 11 20 8 30 -3
11 -5 14 -6 7z"/>
<path d="M538 696 c-9 -13 -48 -49 -86 -82 l-70 -58 42 -48 c53 -61 79 -63 29
-2 l-38 47 80 73 c53 48 77 76 70 83 -7 6 -16 2 -27 -13z"/>
<path d="M793 668 c1 -28 5 -44 10 -39 6 6 5 25 -1 48 l-10 38 1 -47z"/>
<path d="M840 683 c0 -12 5 -25 10 -28 6 -3 7 -17 4 -31 -4 -14 -2 -24 5 -24
15 0 14 31 -4 71 -11 27 -14 30 -15 12z"/>
<path d="M1666 690 c-11 -26 42 -162 76 -197 17 -18 35 -30 40 -26 6 3 -6 22
-25 42 -25 25 -42 59 -60 116 -15 47 -28 74 -31 65z"/>
<path d="M510 620 l-75 -68 21 -28 c24 -32 50 -51 59 -42 4 4 -7 19 -25 35
l-32 29 44 39 c23 22 56 50 72 63 18 14 26 26 20 32 -5 5 -39 -19 -84 -60z"/>
<path d="M900 676 c0 -7 6 -19 14 -25 8 -7 12 -21 9 -31 -3 -11 0 -20 6 -20
15 0 14 30 -1 63 -14 29 -28 36 -28 13z"/>
<path d="M1630 655 c-7 -8 -8 -15 -2 -15 5 0 12 -8 15 -17 2 -10 8 -26 12 -37
7 -16 5 -17 -16 -11 -13 4 -31 14 -40 21 -14 12 -18 12 -28 1 -9 -12 0 -18 50
-36 33 -13 63 -21 65 -19 4 5 -35 128 -41 128 -1 0 -8 -7 -15 -15z"/>
<path d="M626 512 c-28 -44 -49 -89 -49 -105 -1 -57 88 -107 133 -76 27 20
122 169 107 169 -7 0 -36 -36 -65 -80 -56 -88 -77 -98 -124 -60 -41 31 -40 54
2 119 52 80 61 99 52 105 -4 2 -30 -30 -56 -72z"/>
<path d="M657 496 c-52 -82 -55 -95 -29 -119 39 -36 67 -22 116 55 49 76 52
83 36 93 -5 3 -10 2 -10 -4 0 -17 -80 -139 -95 -145 -14 -5 -45 18 -45 33 0
12 81 135 91 139 10 4 2 22 -10 22 -4 0 -29 -33 -54 -74z"/>
<path d="M1535 560 c-3 -5 0 -10 7 -10 37 0 150 -54 177 -86 18 -20 33 -29 37
-23 13 21 -57 77 -130 103 -80 29 -82 30 -91 16z"/>
<path d="M1443 454 c4 -38 7 -99 7 -136 0 -44 4 -68 11 -68 9 0 10 33 5 121
l-7 120 89 -70 c82 -65 113 -83 111 -63 0 7 -194 153 -213 161 -6 2 -7 -22 -3
-65z"/>
<path d="M871 363 c-12 -58 -25 -111 -27 -117 -3 -9 17 -18 63 -28 37 -8 70
-13 73 -11 8 7 -24 22 -63 29 -21 3 -40 11 -43 18 -5 13 30 173 39 183 3 3 29
0 57 -7 28 -7 54 -9 57 -6 10 9 2 13 -67 28 l-66 15 -23 -104z"/>
<path d="M1316 452 c-3 -5 4 -42 14 -83 11 -41 20 -84 20 -96 0 -41 -78 -71
-108 -41 -17 17 -28 2 -12 -17 20 -25 87 -19 115 10 30 29 30 37 6 140 -11 44
-17 83 -15 87 3 5 1 8 -5 8 -5 0 -12 -4 -15 -8z"/>
<path d="M1478 409 l4 -48 34 16 c19 9 34 19 34 22 0 3 -17 18 -38 32 l-37 27
3 -49z m33 -2 c-1 -12 -15 -9 -19 4 -3 6 1 10 8 8 6 -3 11 -8 11 -12z"/>
<path d="M1278 445 c-3 -3 5 -43 18 -90 20 -74 20 -85 7 -96 -12 -10 -19 -10
-35 0 -24 15 -35 7 -18 -14 17 -20 46 -19 69 4 18 18 18 21 -3 110 -20 86 -25
98 -38 86z"/>
<path d="M914 393 c-3 -18 -5 -36 -2 -38 10 -10 88 -17 88 -7 0 5 -6 10 -12 9
-44 -1 -58 4 -58 23 0 22 10 24 58 11 24 -7 32 -7 29 2 -2 6 -24 16 -50 23
l-47 12 -6 -35z"/>
<path d="M1524 366 c-35 -20 -39 -25 -36 -57 4 -39 7 -43 21 -35 7 5 6 15 -1
32 -10 20 -9 27 3 35 30 19 60 21 78 5 20 -18 31 -20 31 -7 0 5 -13 19 -28 30
l-28 20 -40 -23z"/>
<path d="M892 300 l-10 -40 37 -9 c60 -16 74 -17 78 -3 3 7 -4 12 -19 12 -47
0 -69 12 -66 34 3 22 16 24 56 12 13 -5 22 -3 22 3 0 6 -12 13 -27 17 -16 3
-35 8 -44 10 -12 3 -19 -6 -27 -36z"/>
<path d="M1897 320 c3 -11 7 -20 8 -20 1 0 5 9 8 20 3 12 0 20 -8 20 -8 0 -11
-8 -8 -20z"/>
<path d="M1930 335 c0 -14 13 -30 28 -32 7 -2 12 7 12 20 0 18 -2 19 -10 7 -9
-13 -11 -13 -20 0 -5 8 -10 11 -10 5z"/>
</g>
</svg>
